<svg xmlns="http://www.w3.org/2000/svg" viewBox="0 0 192 192" role="img" aria-label="WhatsApp">
  <circle cx="96" cy="96" r="86" fill="#25D366"/>
  <path fill="#fff" d="M95.7 43.5c-29.1 0-52.8 23.4-52.8 52.2 0 10.2 3 20 8.6 28.4L42 148.5l25.2-8.2a53.2 53.2 0 0 0 28.5 8.2c29.2 0 52.9-23.4 52.9-52.2 0-28.8-23.7-52.8-52.9-52.8Zm0 94.1a42.6 42.6 0 0 1-24.6-7.7l-2.9-1.9-14.9 4.8 5-14.5-1.9-3a41 41 0 0 1-6.5-22.1c0-23 20.5-41.7 45.8-41.7 25.3 0 45.8 18.7 45.8 41.7 0 23-20.5 44.4-45.8 44.4Z"/>
  <path fill="#fff" d="M78.2 69.8c-1.2-2.6-2.4-2.7-3.5-2.8h-3c-1 0-2.7.4-4.1 1.9-1.4 1.5-5.4 5.2-5.4 12.8s5.6 14.9 6.4 15.9c.7 1 10.9 17.2 26.9 23.4 13.3 5.2 16 4.2 18.9 3.9 2.9-.3 9.4-3.8 10.7-7.5 1.3-3.7 1.3-6.9.9-7.5-.4-.7-1.5-1-3.1-1.8l-10.9-5.3c-1.5-.7-2.6-1.1-3.7 1.1-1.1 2.2-4.3 5.3-5.3 6.4-1 1.1-2 1.2-3.6.4-1.6-.8-6.8-2.5-13-7.9-4.8-4.2-8-9.4-8.9-11-.9-1.6-.1-2.5.7-3.3.7-.7 1.6-1.9 2.4-2.8.8-.9 1-1.6 1.6-2.6.5-1.1.3-2-.1-2.8l-5-10.7Z"/>
</svg>
